<?xml version="1.0" encoding="utf-8"?>
<!-- Generator: Adobe Illustrator 28.0.0, SVG Export Plug-In . SVG Version: 6.00 Build 0)  -->
<svg version="1.1" id="Layer_1" xmlns="http://www.w3.org/2000/svg" xmlns:xlink="http://www.w3.org/1999/xlink" x="0px" y="0px"
	 viewBox="0 0 63.3 58.5" style="enable-background:new 0 0 63.3 58.5;" xml:space="preserve">
<style type="text/css">
	.st0{fill:#FFFFFF;}
	.st1{fill:#FFFFFF;stroke:#000000;stroke-miterlimit:10;}
</style>
<path d="M0.7,53.4L0.5,7.9c2-4.3,9.7-7.4,18.3-7.4c6.4,0,11.7,1.6,16.1,4.8c5.9,4.3,6.3,9.6,6.6,13.9c0.2,2.7,0.4,5.1,2.1,6.3
	c1.6,1,3.3,2,5,2.8c3.3,1.6,7,3.5,9.8,6.6c3.5,3.8,5,15.2,4.2,18.6L0.7,53.4z"/>
<path d="M18.8,1c6.3,0,11.5,1.5,15.8,4.7c5.8,4.2,6.1,9.4,6.4,13.5c0.2,2.9,0.4,5.3,2.3,6.7c1.6,1.1,3.3,2,5,2.8
	c3.2,1.6,6.9,3.5,9.6,6.5c3.3,3.6,4.8,14.1,4.2,17.8h-61L1.1,30.8L1,8C3,4,10.6,1,18.8,1L18.8,1 M18.8,0L18.8,0C9.8,0,2,3.3,0,7.8
	c0.1,15.4,0.1,30.8,0.2,46.1H63c1.2-3.2-0.5-15.3-4.2-19.4c-4.4-4.9-10.9-6.7-14.8-9.5s1.3-12.8-8.7-20.1C32,2.6,27.1,0,18.8,0z"/>
<path class="st0" d="M2.9,53L2.8,7.4l4.6-2.8L7.4,29.1h5.5l-0.1-26l4.1-0.8L17.3,53h-4.5V34.3H7.4V53H2.9z"/>
<path class="st0" d="M21,52.5V28.6h4.1v23.9H21z"/>
<path class="st0" d="M55.7,33.2l-0.1,19.3h-4.9v-2h-0.1c-0.5,0.6-1.1,1.2-1.8,1.6c-0.9,0.4-1.8,0.7-2.8,0.6c-0.6,0-1.2-0.1-1.8-0.3
	c-0.6-0.2-1.2-0.4-1.7-0.8c-0.5-0.4-0.9-1-1.2-1.5c-0.3-0.7-0.5-1.5-0.4-2.3c0-5.6,0.3-19.5,0.4-21.7c0,0.4,3.8,2.3,4.6,2.6
	l-0.1,17.6c0,0.7,0.2,1.3,0.6,1.8c0.5,0.5,1.1,0.7,1.8,0.7c0.7,0.1,1.4-0.2,1.9-0.7c0.4-0.6,0.6-1.4,0.5-2.1L51.1,31L55.7,33.2z"/>
<circle class="st0" cx="23" cy="18.4" r="2.4"/>
<path class="st0" d="M32.8,37.4H29c-0.3-9.3-0.7-18.6-1.1-27.9c0.3-2.3,1.4-4,2.8-4.2c1.5-0.2,3,1.5,3.4,4.2L32.8,37.4z"/>
<rect x="29.7" y="36" class="st0" width="2" height="14"/>
<path class="st0" d="M39.1,52.5c-2.2,0.1-4.7-0.1-8.6-0.1c-0.4,0-1.2-0.8-0.7-2.3l9.3-0.1V52.5z"/>
<rect x="1.4" y="53.7" class="st1" width="60.2" height="4.3"/>
</svg>
